<mxfile host="app.diagrams.net" agent="Mozilla/5.0 (Macintosh; Intel Mac OS X 10_15_7) AppleWebKit/537.36 (KHTML, like Gecko) Chrome/138.0.0.0 Safari/537.36" version="28.0.7">
  <diagram name="Pagina-1" id="WjTUN3KD0NlVGQAg6tuH">
    <mxGraphModel dx="103" dy="600" grid="1" gridSize="10" guides="1" tooltips="1" connect="1" arrows="1" fold="1" page="1" pageScale="1" pageWidth="827" pageHeight="1169" math="0" shadow="0">
      <root>
        <mxCell id="0" />
        <mxCell id="1" parent="0" />
        <mxCell id="fUpIjNEKh-ToNN0CDDjo-92" value="" style="shape=umlLifeline;perimeter=lifelinePerimeter;whiteSpace=wrap;html=1;container=1;dropTarget=0;collapsible=0;recursiveResize=0;outlineConnect=0;portConstraint=eastwest;newEdgeStyle={&quot;curved&quot;:0,&quot;rounded&quot;:0};participant=umlActor;" vertex="1" parent="1">
          <mxGeometry x="1140" y="680" width="20" height="530" as="geometry" />
        </mxCell>
        <mxCell id="fUpIjNEKh-ToNN0CDDjo-94" value=":Login" style="shape=umlLifeline;perimeter=lifelinePerimeter;whiteSpace=wrap;html=1;container=1;dropTarget=0;collapsible=0;recursiveResize=0;outlineConnect=0;portConstraint=eastwest;newEdgeStyle={&quot;curved&quot;:0,&quot;rounded&quot;:0};" vertex="1" parent="1">
          <mxGeometry x="1191" y="680" width="100" height="530" as="geometry" />
        </mxCell>
        <mxCell id="fUpIjNEKh-ToNN0CDDjo-102" value="" style="html=1;points=[[0,0,0,0,5],[0,1,0,0,-5],[1,0,0,0,5],[1,1,0,0,-5]];perimeter=orthogonalPerimeter;outlineConnect=0;targetShapes=umlLifeline;portConstraint=eastwest;newEdgeStyle={&quot;curved&quot;:0,&quot;rounded&quot;:0};" vertex="1" parent="fUpIjNEKh-ToNN0CDDjo-94">
          <mxGeometry x="45" y="70" width="10" height="80" as="geometry" />
        </mxCell>
        <mxCell id="fUpIjNEKh-ToNN0CDDjo-106" value="newLoanReq(key)" style="html=1;verticalAlign=bottom;startArrow=oval;endArrow=block;startSize=8;curved=0;rounded=0;entryX=0;entryY=0;entryDx=0;entryDy=5;" edge="1" target="fUpIjNEKh-ToNN0CDDjo-105" parent="fUpIjNEKh-ToNN0CDDjo-94">
          <mxGeometry relative="1" as="geometry">
            <mxPoint x="-40" y="195" as="sourcePoint" />
          </mxGeometry>
        </mxCell>
        <mxCell id="fUpIjNEKh-ToNN0CDDjo-97" value=":LoanRequest" style="shape=umlLifeline;perimeter=lifelinePerimeter;whiteSpace=wrap;html=1;container=1;dropTarget=0;collapsible=0;recursiveResize=0;outlineConnect=0;portConstraint=eastwest;newEdgeStyle={&quot;curved&quot;:0,&quot;rounded&quot;:0};" vertex="1" parent="1">
          <mxGeometry x="1310" y="680" width="100" height="530" as="geometry" />
        </mxCell>
        <mxCell id="fUpIjNEKh-ToNN0CDDjo-105" value="" style="html=1;points=[[0,0,0,0,5],[0,1,0,0,-5],[1,0,0,0,5],[1,1,0,0,-5]];perimeter=orthogonalPerimeter;outlineConnect=0;targetShapes=umlLifeline;portConstraint=eastwest;newEdgeStyle={&quot;curved&quot;:0,&quot;rounded&quot;:0};" vertex="1" parent="fUpIjNEKh-ToNN0CDDjo-97">
          <mxGeometry x="45" y="190" width="10" height="90" as="geometry" />
        </mxCell>
        <mxCell id="fUpIjNEKh-ToNN0CDDjo-98" value=":LoanList" style="shape=umlLifeline;perimeter=lifelinePerimeter;whiteSpace=wrap;html=1;container=1;dropTarget=0;collapsible=0;recursiveResize=0;outlineConnect=0;portConstraint=eastwest;newEdgeStyle={&quot;curved&quot;:0,&quot;rounded&quot;:0};" vertex="1" parent="1">
          <mxGeometry x="1420" y="680" width="100" height="530" as="geometry" />
        </mxCell>
        <mxCell id="fUpIjNEKh-ToNN0CDDjo-112" value="" style="html=1;points=[[0,0,0,0,5],[0,1,0,0,-5],[1,0,0,0,5],[1,1,0,0,-5]];perimeter=orthogonalPerimeter;outlineConnect=0;targetShapes=umlLifeline;portConstraint=eastwest;newEdgeStyle={&quot;curved&quot;:0,&quot;rounded&quot;:0};" vertex="1" parent="fUpIjNEKh-ToNN0CDDjo-98">
          <mxGeometry x="45" y="270" width="10" height="80" as="geometry" />
        </mxCell>
        <mxCell id="fUpIjNEKh-ToNN0CDDjo-116" value="" style="html=1;points=[[0,0,0,0,5],[0,1,0,0,-5],[1,0,0,0,5],[1,1,0,0,-5]];perimeter=orthogonalPerimeter;outlineConnect=0;targetShapes=umlLifeline;portConstraint=eastwest;newEdgeStyle={&quot;curved&quot;:0,&quot;rounded&quot;:0};" vertex="1" parent="fUpIjNEKh-ToNN0CDDjo-98">
          <mxGeometry x="45" y="400" width="10" height="80" as="geometry" />
        </mxCell>
        <mxCell id="fUpIjNEKh-ToNN0CDDjo-103" value="login()" style="html=1;verticalAlign=bottom;endArrow=block;curved=0;rounded=0;entryX=0;entryY=0;entryDx=0;entryDy=5;" edge="1" target="fUpIjNEKh-ToNN0CDDjo-102" parent="1" source="fUpIjNEKh-ToNN0CDDjo-92">
          <mxGeometry x="0.0005" relative="1" as="geometry">
            <mxPoint x="1161" y="755" as="sourcePoint" />
            <mxPoint as="offset" />
          </mxGeometry>
        </mxCell>
        <mxCell id="fUpIjNEKh-ToNN0CDDjo-104" value="user data &lt;br&gt;and&amp;nbsp; auth. key" style="html=1;verticalAlign=bottom;endArrow=open;dashed=1;endSize=8;curved=0;rounded=0;exitX=0;exitY=1;exitDx=0;exitDy=-5;" edge="1" source="fUpIjNEKh-ToNN0CDDjo-102" parent="1" target="fUpIjNEKh-ToNN0CDDjo-92">
          <mxGeometry x="0.0041" relative="1" as="geometry">
            <mxPoint x="1161" y="825" as="targetPoint" />
            <mxPoint as="offset" />
          </mxGeometry>
        </mxCell>
        <mxCell id="fUpIjNEKh-ToNN0CDDjo-108" value="loansUpdate(req)" style="html=1;verticalAlign=bottom;startArrow=oval;startFill=1;endArrow=block;startSize=8;curved=0;rounded=0;" edge="1" parent="1">
          <mxGeometry x="0.0084" width="60" relative="1" as="geometry">
            <mxPoint x="1360" y="960" as="sourcePoint" />
            <mxPoint x="1465" y="960" as="targetPoint" />
            <mxPoint as="offset" />
          </mxGeometry>
        </mxCell>
        <mxCell id="fUpIjNEKh-ToNN0CDDjo-109" value="" style="shape=umlLifeline;perimeter=lifelinePerimeter;whiteSpace=wrap;html=1;container=1;dropTarget=0;collapsible=0;recursiveResize=0;outlineConnect=0;portConstraint=eastwest;newEdgeStyle={&quot;curved&quot;:0,&quot;rounded&quot;:0};participant=umlActor;" vertex="1" parent="1">
          <mxGeometry x="1060" y="680" width="20" height="530" as="geometry" />
        </mxCell>
        <mxCell id="fUpIjNEKh-ToNN0CDDjo-114" value="" style="html=1;points=[[0,0,0,0,5],[0,1,0,0,-5],[1,0,0,0,5],[1,1,0,0,-5]];perimeter=orthogonalPerimeter;outlineConnect=0;targetShapes=umlLifeline;portConstraint=eastwest;newEdgeStyle={&quot;curved&quot;:0,&quot;rounded&quot;:0};" vertex="1" parent="fUpIjNEKh-ToNN0CDDjo-109">
          <mxGeometry x="5" y="330" width="10" height="80" as="geometry" />
        </mxCell>
        <mxCell id="fUpIjNEKh-ToNN0CDDjo-110" value="User" style="text;html=1;align=center;verticalAlign=middle;whiteSpace=wrap;rounded=0;" vertex="1" parent="1">
          <mxGeometry x="1080" y="690" width="60" height="30" as="geometry" />
        </mxCell>
        <mxCell id="fUpIjNEKh-ToNN0CDDjo-111" value="Admin" style="text;html=1;align=center;verticalAlign=middle;whiteSpace=wrap;rounded=0;" vertex="1" parent="1">
          <mxGeometry x="1000" y="690" width="60" height="30" as="geometry" />
        </mxCell>
        <mxCell id="fUpIjNEKh-ToNN0CDDjo-113" value="getPendingReq(LoanList)" style="html=1;verticalAlign=bottom;endArrow=open;dashed=1;endSize=8;curved=0;rounded=0;entryX=0.679;entryY=0.547;entryDx=0;entryDy=0;entryPerimeter=0;" edge="1" parent="1">
          <mxGeometry x="0.0006" relative="1" as="geometry">
            <mxPoint x="1465" y="1020.0000000000001" as="sourcePoint" />
            <mxPoint x="1073.5800000000002" y="1020.0000000000001" as="targetPoint" />
            <mxPoint as="offset" />
          </mxGeometry>
        </mxCell>
        <mxCell id="fUpIjNEKh-ToNN0CDDjo-115" value="loansUpdate(decision)" style="html=1;verticalAlign=bottom;startArrow=oval;startFill=1;endArrow=block;startSize=8;curved=0;rounded=0;" edge="1" parent="1" target="fUpIjNEKh-ToNN0CDDjo-98">
          <mxGeometry width="60" relative="1" as="geometry">
            <mxPoint x="1070" y="1090" as="sourcePoint" />
            <mxPoint x="1130" y="1090" as="targetPoint" />
          </mxGeometry>
        </mxCell>
        <mxCell id="fUpIjNEKh-ToNN0CDDjo-117" value="getReqStatus(LoanList)" style="html=1;verticalAlign=bottom;endArrow=open;dashed=1;endSize=8;curved=0;rounded=0;" edge="1" parent="1">
          <mxGeometry x="0.001" relative="1" as="geometry">
            <mxPoint x="1465" y="1150" as="sourcePoint" />
            <mxPoint x="1150.1" y="1150" as="targetPoint" />
            <mxPoint as="offset" />
          </mxGeometry>
        </mxCell>
      </root>
    </mxGraphModel>
  </diagram>
</mxfile>
